<svg width="21" height="28" viewBox="0 0 21 28" fill="none" xmlns="http://www.w3.org/2000/svg">
<path d="M11.6719 12.3327H13.3385V12.966C13.9719 12.5438 14.6663 12.3327 15.4219 12.3327C16.0997 12.3327 16.7247 12.5021 17.2969 12.841C17.8691 13.1799 18.3247 13.6355 18.6635 14.2077C19.0024 14.7799 19.1719 15.4049 19.1719 16.0827V20.666H17.5052V16.0827C17.5052 15.6938 17.408 15.341 17.2135 15.0243C17.0191 14.7077 16.7635 14.4577 16.4469 14.2743C16.1302 14.091 15.7885 13.9993 15.4219 13.9993C15.0552 13.9993 14.7135 14.091 14.3969 14.2743C14.0802 14.4577 13.8247 14.7077 13.6302 15.0243C13.4358 15.341 13.3385 15.6938 13.3385 16.0827V20.666H11.6719V12.3327ZM10.0052 7.33268V8.99935H3.33854V13.166H10.0052V14.8327H3.33854V18.9993H10.0052V20.666H1.67188V7.33268H10.0052Z" fill="#0D9488"/>
</svg>
