<svg width="21" height="28" viewBox="0 0 21 28" fill="none" xmlns="http://www.w3.org/2000/svg">
<path d="M4.42188 16.916V18.5827C4.42188 19.016 4.57188 19.3938 4.87188 19.716C5.17188 20.0382 5.53854 20.216 5.97188 20.2493H8.58854V21.916H6.08854C5.48854 21.916 4.93299 21.766 4.42188 21.466C3.91076 21.166 3.50521 20.7605 3.20521 20.2493C2.90521 19.7382 2.75521 19.1827 2.75521 18.5827V16.916H4.42188ZM15.2552 12.7493L18.9219 21.916H17.1219L16.1219 19.416H12.7219L11.7219 21.916H9.92188L13.5885 12.7493H15.2552ZM14.4219 15.1493L13.3885 17.7493H15.4552L14.4219 15.1493ZM6.92188 6.08268V7.74935H10.2552V13.5827H6.92188V16.0827H5.25521V13.5827H1.92188V7.74935H5.25521V6.08268H6.92188ZM14.4219 6.91601C15.0219 6.91601 15.5774 7.06602 16.0885 7.36601C16.5997 7.66601 17.0052 8.07157 17.3052 8.58268C17.6052 9.09379 17.7552 9.64935 17.7552 10.2493V11.916H16.0885V10.2493C16.0885 9.94935 16.0135 9.67157 15.8635 9.41601C15.7135 9.16046 15.5108 8.95768 15.2552 8.80768C14.9997 8.65768 14.7219 8.58268 14.4219 8.58268H11.9219V6.91601H14.4219ZM5.25521 9.41601H3.58854V11.916H5.25521V9.41601ZM8.58854 9.41601H6.92188V11.916H8.58854V9.41601Z" fill="#0D9488"/>
</svg>
